<?xml version="1.0" encoding="utf-8"?>
<!-- Generator: Adobe Illustrator 20.0.0, SVG Export Plug-In . SVG Version: 6.00 Build 0)  -->
<svg version="1.1" id="Layer_1" xmlns="http://www.w3.org/2000/svg" xmlns:xlink="http://www.w3.org/1999/xlink" x="0px" y="0px"
	 viewBox="0 0 388.9 423.1" style="enable-background:new 0 0 388.9 423.1;" xml:space="preserve">
<style type="text/css">
	.st0{fill:none;stroke:#231815;}
	.st1{fill:#231815;}
	.st2{font-family:'Calibri';}
	.st3{font-size:18px;}
	.st4{fill:none;stroke:#6F6F6F;}
	.st5{fill:#E50012;}
	.st6{fill:#FFFFFF;}
	.st7{font-family:'Calibri-Bold';}
	.st8{font-size:12px;}
	.st9{fill:#FFF368;}
	.st10{fill:none;stroke:#6F6F6F;stroke-width:0.283;}
	.st11{fill:#1BA86A;}
	.st12{clip-path:url(#SVGID_2_);fill:none;stroke:#231815;}
	.st13{font-family:'Calibri-Light';}
	.st14{font-size:31.1554px;}
</style>
<image style="overflow:visible;" width="1481" height="1178" xlink:href="Chinglish-Framework2.png"  transform="matrix(1.0849 0 0 1.0849 -2293.553 -372.0919)">
</image>
<line class="st0" x1="40.6" y1="390.7" x2="40.6" y2="48.5"/>
<polygon class="st1" points="40.6,43 38.1,50 40.6,48.5 43.2,50 "/>
<line class="st0" x1="30.7" y1="379.7" x2="373" y2="379.7"/>
<polygon class="st1" points="373,379.7 371.4,382.2 378.4,379.7 371.4,377.1 "/>
<text transform="matrix(-6.123234e-17 -1 1 -6.123234e-17 23.6865 243.7762)" class="st1 st2 st3">Priority</text>
<text transform="matrix(1 0 0 1 153.3011 405.4293)"><tspan x="0" y="0" class="st1 st2 st3">R</tspan><tspan x="9.4" y="0" class="st1 st2 st3">e</tspan><tspan x="18.3" y="0" class="st1 st2 st3">vi</tspan><tspan x="30.5" y="0" class="st1 st2 st3">s</tspan><tspan x="37.5" y="0" class="st1 st2 st3">i</tspan><tspan x="41.6" y="0" class="st1 st2 st3">o</tspan><tspan x="51.1" y="0" class="st1 st2 st3">n</tspan><tspan x="60.5" y="0" class="st1 st2 st3"> </tspan><tspan x="64.5" y="0" class="st1 st2 st3">Am</tspan><tspan x="89.3" y="0" class="st1 st2 st3">o</tspan><tspan x="98.8" y="0" class="st1 st2 st3">u</tspan><tspan x="108.2" y="0" class="st1 st2 st3">n</tspan><tspan x="117.5" y="0" class="st1 st2 st3">t</tspan></text>
<line class="st4" x1="40.6" y1="150.3" x2="48.9" y2="150.3"/>
<line class="st4" x1="40.6" y1="265.8" x2="48.9" y2="265.8"/>
<rect x="68.1" y="53.9" class="st5" width="293.8" height="75.5"/>
<text transform="matrix(1 0 0 1 191.9627 95.4791)"><tspan x="0" y="0" class="st6 st7 st8">3X </tspan><tspan x="15.4" y="0" class="st6 st7 st8">w</tspan><tspan x="24.2" y="0" class="st6 st7 st8">o</tspan><tspan x="30.7" y="0" class="st6 st7 st8">r</tspan><tspan x="34.8" y="0" class="st6 st7 st8">ds</tspan></text>
<rect x="68.1" y="53.9" class="st4" width="293.8" height="75.5"/>
<rect x="68.7" y="170.5" class="st9" width="199.3" height="75.5"/>
<text transform="matrix(1 0 0 1 145.3328 212.0582)"><tspan x="0" y="0" class="st1 st7 st8">2X </tspan><tspan x="15.4" y="0" class="st1 st7 st8">w</tspan><tspan x="24.2" y="0" class="st1 st7 st8">o</tspan><tspan x="30.7" y="0" class="st1 st7 st8">r</tspan><tspan x="34.8" y="0" class="st1 st7 st8">ds</tspan></text>
<rect x="68.7" y="170.5" class="st10" width="199.3" height="75.5"/>
<rect x="69.4" y="286.7" class="st11" width="101.5" height="75.5"/>
<text transform="matrix(1 0 0 1 97.1141 328.278)"><tspan x="0" y="0" class="st1 st7 st8">1X </tspan><tspan x="15.4" y="0" class="st1 st7 st8">w</tspan><tspan x="24.2" y="0" class="st1 st7 st8">o</tspan><tspan x="30.7" y="0" class="st1 st7 st8">r</tspan><tspan x="34.8" y="0" class="st1 st7 st8">ds</tspan></text>
<rect x="69.4" y="286.7" class="st10" width="101.5" height="75.5"/>
<g>
	<defs>
		<rect id="SVGID_1_" y="-59" width="378.4" height="482.1"/>
	</defs>
	<clipPath id="SVGID_2_">
		<use xlink:href="#SVGID_1_"  style="overflow:visible;"/>
	</clipPath>
	<path class="st12" d="M366.2-59"/>
</g>
<text transform="matrix(1.1284 0 0 1 11.6865 25.1445)" class="st1 st13 st14">One Punch</text>
<rect x="-2259.2" y="596.9" style="fill:none;" width="300" height="57.7"/>
<text transform="matrix(1 0 0 1 -2259.1782 613.9483)" style="font-family:'MyriadPro-Regular'; font-size:24px;">Learn and Review Mechanism</text>
<rect x="-2259.2" y="-327.7" style="fill:none;" width="241.5" height="83.6"/>
<text transform="matrix(1 0 0 1 -2259.1782 -310.6945)" style="font-family:'MyriadPro-Regular'; font-size:24px;">Product Framework</text>
</svg>
