<svg xmlns:dc="http://purl.org/dc/elements/1.1/" xmlns:cc="http://creativecommons.org/ns#" xmlns:rdf="http://www.w3.org/1999/02/22-rdf-syntax-ns#" xmlns:svg="http://www.w3.org/2000/svg" xmlns="http://www.w3.org/2000/svg" xmlns:sodipodi="http://sodipodi.sourceforge.net/DTD/sodipodi-0.dtd" xmlns:inkscape="http://www.inkscape.org/namespaces/inkscape" version="1.1" x="0px" y="0px" viewBox="0 0 80 100"><g transform="translate(0,-972.36218)"><path d="m 29,1003.3622 c 4.26161,0 7.86612,3.004 8.78125,7 l 20.21875,0 c 1.1046,0 2,0.8954 2,2 l 0,7 c 0,1.1046 -0.8954,2 -2,2 -1.1046,0 -2,-0.8954 -2,-2 l 0,-5 -4,0 0,5 c 0,1.1046 -0.8954,2 -2,2 -1.1046,0 -2,-0.8954 -2,-2 l 0,-5 -10.21875,0 c -0.91513,3.9961 -4.51964,7 -8.78125,7 -4.94687,0 -9,-4.0531 -9,-9 0,-4.9469 4.05313,-9 9,-9 z m 0,4 c -2.78511,0 -5,2.2149 -5,5 0,2.7851 2.21489,5 5,5 2.78511,0 5,-2.2149 5,-5 0,-2.7851 -2.21489,-5 -5,-5 z" style="text-indent:0;text-transform:none;direction:ltr;block-progression:tb;baseline-shift:baseline;color:#000000;enable-background:accumulate;" fill="#000000" fill-opacity="1" stroke="none" marker="none" visibility="visible" display="inline" overflow="visible"/></g><text x="0" y="95" fill="#000000" font-size="5px" font-weight="bold" font-family="'Helvetica Neue', Helvetica, Arial-Unicode, Arial, Sans-serif">Created by Aybige</text><text x="0" y="100" fill="#000000" font-size="5px" font-weight="bold" font-family="'Helvetica Neue', Helvetica, Arial-Unicode, Arial, Sans-serif">from the Noun Project</text></svg>