<svg xmlns="http://www.w3.org/2000/svg" viewBox="0 0 35.52 32.38"><defs><style>.cls-1{fill:#bb1c22;}</style></defs><title>key2</title><g id="Layer_2" data-name="Layer 2"><g id="Layer_1-2" data-name="Layer 1"><path class="cls-1" d="M13.79,1.38A9,9,0,0,1,17.49,12l17.1,10.78a2,2,0,0,1,.63,2.76l-3.73,5.92a2,2,0,1,1-3.38-2.13l2.67-4.23-3.38-2.13-2.67,4.23A2,2,0,1,1,21.33,25L24,20.81l-8.65-5.45a9,9,0,0,1-14-11.17A9,9,0,0,1,13.79,1.38ZM11.66,4.76a5,5,0,1,0,1.56,6.9A5,5,0,0,0,11.66,4.76Z"/></g></g></svg>