<svg xmlns:dc="http://purl.org/dc/elements/1.1/" xmlns:cc="http://creativecommons.org/ns#" xmlns:rdf="http://www.w3.org/1999/02/22-rdf-syntax-ns#" xmlns:svg="http://www.w3.org/2000/svg" xmlns="http://www.w3.org/2000/svg" xmlns:sodipodi="http://sodipodi.sourceforge.net/DTD/sodipodi-0.dtd" xmlns:inkscape="http://www.inkscape.org/namespaces/inkscape" version="1.1" x="0px" y="0px" viewBox="0 0 100 125"><g transform="translate(0,-952.36218)"><path style="text-indent:0;text-transform:none;direction:ltr;block-progression:tb;baseline-shift:baseline;color:#000000;enable-background:accumulate;" d="m 22,958.36218 c -2.7527,0 -5,2.2473 -5,5 l 0,78.00002 c 0,2.7527 2.2473,5 5,5 l 56,0 c 2.7527,0 5,-2.2473 5,-5 l 0,-78.00002 c 0,-2.7527 -2.2473,-5 -5,-5 l -56,0 z m 0,2 56,0 c 1.6793,0 3,1.3207 3,3 l 0,78.00002 c 0,1.6793 -1.3207,3 -3,3 l -56,0 c -1.6793,0 -3,-1.3207 -3,-3 l 0,-78.00002 c 0,-1.6793 1.3207,-3 3,-3 z m 6,14 c -0.6584,0.01 -1.0002,0.6542 -1,1 l 0,6 c 10e-5,0.5236 0.4764,0.9999 1,1 l 6,0 c 0.5236,-10e-5 1,-0.4764 1,-1 l 0,-6 c 0,-0.5236 -0.4764,-0.9999 -1,-1 l -6,0 z m 1,2 4,0 0,4 -4,0 0,-4 z m 16,1 c -0.5523,0 -1,0.4478 -1,1 0,0.5523 0.4477,1 1,1 l 27,0 c 0.5523,0 1,-0.4477 1,-1 0,-0.5522 -0.4477,-1 -1,-1 l -27,0 z m -17,13 c -0.6584,0.01 -1.0002,0.6542 -1,1 l 0,6 c 10e-5,0.5236 0.4764,0.9999 1,1 l 6,0 c 0.5236,-10e-5 1,-0.4764 1,-1 l 0,-6 c 0,-0.5236 -0.4764,-0.9999 -1,-1 l -6,0 z m 1,2 4,0 0,4 -4,0 0,-4 z m 16,1 c -0.5523,0 -1,0.4478 -1,1 0,0.5523 0.4477,1 1,1 l 27,0 c 0.5523,0 1,-0.4477 1,-1 0,-0.5522 -0.4477,-1 -1,-1 l -27,0 z m -17,13.00002 c -0.6584,0.01 -1.0002,0.6542 -1,1 l 0,6 c 10e-5,0.5236 0.4764,0.9999 1,1 l 6,0 c 0.5236,-10e-5 1,-0.4764 1,-1 l 0,-6 c 0,-0.5236 -0.4764,-0.9999 -1,-1 l -6,0 z m 1,2 4,0 0,4 -4,0 0,-4 z m 16,1 c -0.5523,0 -1,0.4477 -1,1 0,0.5523 0.4477,1 1,1 l 27,0 c 0.5523,0 1,-0.4477 1,-1 0,-0.5523 -0.4477,-1 -1,-1 l -27,0 z m -17,13 c -0.6584,0.01 -1.0002,0.6542 -1,1 l 0,6 c 10e-5,0.5236 0.4764,0.9999 1,1 l 6,0 c 0.5236,-10e-5 1,-0.4764 1,-1 l 0,-6 c 0,-0.5236 -0.4764,-0.9999 -1,-1 l -6,0 z m 1,2 4,0 0,4 -4,0 0,-4 z m 16,1 c -0.5523,0 -1,0.4477 -1,1 0,0.5523 0.4477,1 1,1 l 27,0 c 0.5523,0 1,-0.4477 1,-1 0,-0.5523 -0.4477,-1 -1,-1 l -27,0 z" fill="#000000" fill-opacity="1" stroke="none" marker="none" visibility="visible" display="inline" overflow="visible"/></g><text x="0" y="115" fill="#000000" font-size="5px" font-weight="bold" font-family="'Helvetica Neue', Helvetica, Arial-Unicode, Arial, Sans-serif">Created by unlimicon</text><text x="0" y="120" fill="#000000" font-size="5px" font-weight="bold" font-family="'Helvetica Neue', Helvetica, Arial-Unicode, Arial, Sans-serif">from the Noun Project</text></svg>