<svg xmlns:dc="http://purl.org/dc/elements/1.1/" xmlns:cc="http://creativecommons.org/ns#" xmlns:rdf="http://www.w3.org/1999/02/22-rdf-syntax-ns#" xmlns:svg="http://www.w3.org/2000/svg" xmlns="http://www.w3.org/2000/svg" xmlns:sodipodi="http://sodipodi.sourceforge.net/DTD/sodipodi-0.dtd" xmlns:inkscape="http://www.inkscape.org/namespaces/inkscape" version="1.1" x="0px" y="0px" viewBox="0 0 100 125"><g transform="translate(0,-952.36218)"><path style="text-indent:0;text-transform:none;direction:ltr;block-progression:tb;baseline-shift:baseline;color:#000000;enable-background:accumulate;" d="m 18,958.36217 c -0.6311,0 -0.9924,0.5331 -1,1 l 0,86.00003 c 10e-5,0.5236 0.4764,0.9999 1,1 l 50,0 c 0.2684,0 0.5343,-0.1176 0.7188,-0.3125 l 14,-14 c 0.1763,-0.1823 0.2792,-0.4338 0.2812,-0.6875 l 0,-72.00003 c -1e-4,-0.5236 -0.4764,-0.9999 -1,-1 l -64,0 z m 1,2 62,0 0,70.00003 -13,0 c -0.6416,0.01 -0.9932,0.5191 -1,1 l 0,13 -48,0 0,-84.00003 z m 12,12 c -2.1973,0 -4,1.80273 -4,4.00003 0,2.1973 1.8027,4 4,4 2.1973,0 4,-1.8027 4,-4 0,-2.1973 -1.8027,-4.00003 -4,-4.00003 z m 0,2.00003 c 1.1164,0 2,0.8835 2,2 0,1.1165 -0.8836,2 -2,2 -1.1164,0 -2,-0.8835 -2,-2 0,-1.1165 0.8836,-2 2,-2 z m 14,1 c -0.5523,0 -1,0.4478 -1,1 0,0.5523 0.4477,1 1,1 l 27,0 c 0.5523,0 1,-0.4477 1,-1 0,-0.5522 -0.4477,-1 -1,-1 l -27,0 z m -14,13 c -2.1973,0 -4,1.8027 -4,4 0,2.1973 1.8027,4 4,4 2.1973,0 4,-1.8027 4,-4 0,-2.1973 -1.8027,-4 -4,-4 z m 0,2 c 1.1164,0 2,0.8835 2,2 0,1.1165 -0.8836,2 -2,2 -1.1164,0 -2,-0.8835 -2,-2 0,-1.1165 0.8836,-2 2,-2 z m 14,1 c -0.5523,0 -1,0.4478 -1,1 0,0.5523 0.4477,1 1,1 l 27,0 c 0.5523,0 1,-0.4477 1,-1 0,-0.5522 -0.4477,-1 -1,-1 l -27,0 z m -14,13 c -2.1973,0 -4,1.8027 -4,4 0,2.1973 1.8027,4 4,4 2.1973,0 4,-1.8027 4,-4 0,-2.1973 -1.8027,-4 -4,-4 z m 0,2 c 1.1164,0 2,0.8835 2,2 0,1.1165 -0.8836,2 -2,2 -1.1164,0 -2,-0.8835 -2,-2 0,-1.1165 0.8836,-2 2,-2 z m 14,1 c -0.5523,0 -1,0.4477 -1,1 0,0.5523 0.4477,1 1,1 l 27,0 c 0.5523,0 1,-0.4477 1,-1 0,-0.5523 -0.4477,-1 -1,-1 l -27,0 z m -14,13 c -2.1973,0 -4,1.8027 -4,4 0,2.1973 1.8027,4 4,4 2.1973,0 4,-1.8027 4,-4 0,-2.1973 -1.8027,-4 -4,-4 z m 0,2 c 1.1164,0 2,0.8835 2,2 0,1.1165 -0.8836,2 -2,2 -1.1164,0 -2,-0.8835 -2,-2 0,-1.1165 0.8836,-2 2,-2 z m 14,1 c -0.5523,0 -1,0.4477 -1,1 0,0.5523 0.4477,1 1,1 l 27,0 c 0.5523,0 1,-0.4477 1,-1 0,-0.5523 -0.4477,-1 -1,-1 l -27,0 z m 24,9 10.5625,0 -10.5625,10.5625 0,-10.5625 z" fill="#000000" fill-opacity="1" stroke="none" marker="none" visibility="visible" display="inline" overflow="visible"/></g><text x="0" y="115" fill="#000000" font-size="5px" font-weight="bold" font-family="'Helvetica Neue', Helvetica, Arial-Unicode, Arial, Sans-serif">Created by unlimicon</text><text x="0" y="120" fill="#000000" font-size="5px" font-weight="bold" font-family="'Helvetica Neue', Helvetica, Arial-Unicode, Arial, Sans-serif">from the Noun Project</text></svg>