<svg xmlns="http://www.w3.org/2000/svg" xmlns:xlink="http://www.w3.org/1999/xlink" version="1.1" x="0px" y="0px" viewBox="0 0 100 125" style="enable-background:new 0 0 100 100;" xml:space="preserve"><style type="text/css">
	.st0{fill:none;stroke:#39374B;stroke-width:3;stroke-linecap:round;stroke-linejoin:round;stroke-miterlimit:10;}
</style><path d="M50.4,61.2c-0.2,0-0.3,0-0.5-0.1L0.6,37C0.2,36.8,0,36.4,0,36c0-0.4,0.3-0.8,0.7-1L50,17.6c0.2-0.1,0.5-0.1,0.7,0L99.3,35  c0.4,0.2,0.7,0.5,0.7,1c0,0.4-0.2,0.9-0.6,1.1l-48.5,24C50.7,61.1,50.5,61.2,50.4,61.2z M4,36.2l46.4,22.6L96,36.2L50.4,19.9L4,36.2  z"/><path d="M50.5,80.9c-1.4,0-2.9-0.4-4.2-1.1L20.9,69.3c-0.4-0.2-0.7-0.6-0.7-1V46.5c0-0.4,0.2-0.7,0.5-0.9c0.3-0.2,0.7-0.2,1.1-0.1  l28.6,13.4l29.1-14.3c0.3-0.2,0.8-0.2,1.1,0.1c0.3,0.2,0.5,0.6,0.5,0.9v22.9c0,0.5-0.3,0.9-0.7,1L54.5,79.9  C53.2,80.5,51.8,80.9,50.5,80.9z M22.4,67.5l24.8,10.3c0,0,0.1,0,0.1,0.1c1.9,1.1,4.2,1.1,6.1,0.1c0,0,0.1,0,0.1-0.1l25.2-10.1V47.3  L50.9,61.1c-0.3,0.1-0.7,0.2-1,0L22.4,48.2V67.5z"/><path class="st0" d="M50,39.8"/><path d="M88.1,66.1c-0.6,0-1.1-0.5-1.1-1.1V43.5l-36.5-5.4c-0.6-0.1-1-0.7-0.9-1.3c0.1-0.6,0.7-1,1.3-0.9l37.5,5.5  c0.5,0.1,1,0.5,1,1.1V65C89.2,65.6,88.7,66.1,88.1,66.1z"/><path d="M88.1,82.4c-0.4,0-0.8-0.2-1-0.6l-5-8.8c-0.2-0.3-0.2-0.8,0-1.1l5-8.8c0.2-0.3,0.6-0.6,1-0.6l0,0c0.4,0,0.8,0.2,1,0.6l5,8.8  c0.2,0.3,0.2,0.8,0,1.1l-5,8.8C88.9,82.2,88.5,82.4,88.1,82.4z M84.3,72.5l3.7,6.6l3.7-6.6l-3.7-6.6L84.3,72.5z"/><circle cx="50.6" cy="37.1" r="3.8"/><text x="0" y="115" fill="#000000" font-size="5px" font-weight="bold" font-family="'Helvetica Neue', Helvetica, Arial-Unicode, Arial, Sans-serif">Created by Firman Suci Ananda</text><text x="0" y="120" fill="#000000" font-size="5px" font-weight="bold" font-family="'Helvetica Neue', Helvetica, Arial-Unicode, Arial, Sans-serif">from the Noun Project</text></svg>