<svg xmlns="http://www.w3.org/2000/svg" xmlns:xlink="http://www.w3.org/1999/xlink" version="1.1" x="0px" y="0px" viewBox="0 0 100 125" enable-background="new 0 0 100 100" xml:space="preserve"><path d="M16.4,50c0,18.5,15.1,33.6,33.6,33.6c18.5,0,33.6-15.1,33.6-33.6S68.5,16.4,50,16.4C31.5,16.4,16.4,31.5,16.4,50z M50,81.6  c-8.4,0-16-3.3-21.7-8.7c11.4-3.4,14.3-7.7,14.9-9.8c1.8,0.9,3.9,1.4,6.3,1.4c0,0,0.1,0,0.1,0l0.1,0l0.1,0c0,0,0.1,0,0.1,0  c2.6,0,4.8-0.6,6.7-1.7c0.5,2.1,3.1,6.8,15,10.1C66,78.3,58.4,81.6,50,81.6z M41.2,59c-5-5.7-4-16.3-4-16.4c0,0,0,0,0-0.1  c0.5-11.9,9.4-12.8,12.1-12.8c0.1,0,0.2,0,0.3,0c0,0,0.1,0,0.1,0c0.1,0,0.2,0,0.3,0c2.7,0,11.6,0.9,12.1,12.8c0,0,0,0,0,0.1  c0,0.1,1.1,10.7-3.9,16.4c-2.1,2.3-4.9,3.5-8.4,3.5c0,0,0,0-0.1,0l0,0l0,0c0,0,0,0-0.1,0C46.1,62.5,43.2,61.3,41.2,59z M81.6,50  c0,8.2-3.1,15.7-8.3,21.3c-14.6-3.7-14.8-9.3-14.8-9.5c0-0.1,0-0.2,0-0.3c0.4-0.4,0.9-0.8,1.3-1.2c5.5-6.2,4.5-17.1,4.4-17.9  c-0.7-14-11.9-14.7-14.2-14.7c-0.1,0-0.2,0-0.3,0c-0.1,0-0.2,0-0.3,0c-2.2,0-13.5,0.7-14.2,14.7c-0.1,0.8-1.1,11.7,4.4,17.9  c0.5,0.6,1.1,1.2,1.8,1.6c-0.1,0.8-1.2,5.6-14.7,9.3c-5.1-5.6-8.3-13.1-8.3-21.3c0-17.4,14.2-31.6,31.6-31.6  C67.4,18.4,81.6,32.6,81.6,50z"/><text x="0" y="115" fill="#000000" font-size="5px" font-weight="bold" font-family="'Helvetica Neue', Helvetica, Arial-Unicode, Arial, Sans-serif">Created by Gregor Črešnar</text><text x="0" y="120" fill="#000000" font-size="5px" font-weight="bold" font-family="'Helvetica Neue', Helvetica, Arial-Unicode, Arial, Sans-serif">from the Noun Project</text></svg>