<svg xmlns="http://www.w3.org/2000/svg" xmlns:xlink="http://www.w3.org/1999/xlink" version="1.1" x="0px" y="0px" viewBox="NaN NaN NaN 113.24375"><g transform="translate(-10.468, -4.521)"><path d="M21.468,64.766 L21.469,64.77 C23.887,65.169 24.608,67.559 25.293,69.574 C25.994,69.257 26.694,68.937 27.398,68.625 C34.671,65.445 41.402,64.576 51.796,66.795 C51.888,66.815 52.333,66.749 53.043,66.57 C53.51,66.452 55.528,65.888 55.823,65.809 C57.374,65.391 58.634,65.11 59.868,64.935 L61.521,64.771 C65.019,64.698 67.206,65.61 68.964,68.696 L69.248,68.614 C70.023,68.39 70.892,68.137 71.833,67.86 C72.58,67.64 75.705,66.665 75.479,66.734 C76.506,66.418 77.354,66.167 78.171,65.943 C80.045,65.361 81.973,65.084 83.914,64.855 C85.951,64.89 85.102,64.795 86.474,65.009 C89.253,65.595 90.555,67.702 90.032,71.161 C89.875,72.193 89.135,72.547 87.446,72.943 C87.24,72.991 85.485,73.367 84.908,73.507 C83.825,73.771 82.896,74.057 82.018,74.42 C81.786,74.516 81.56,74.616 81.34,74.722 C77.609,76.504 74.267,77.734 71.032,78.599 C69.765,78.938 68.551,79.213 67.226,79.472 C66.471,79.619 64.19,80.03 64.188,80.03 C63.049,80.242 62.299,80.413 61.637,80.624 C60.607,80.952 59.487,81.325 58.114,81.796 C57.834,81.892 57.542,81.992 57.224,82.102 C50.598,84.39 50.138,84.543 48.507,84.93 C48.211,85.001 47.913,85.065 47.612,85.124 C42.555,86.123 37.774,85.639 30.787,83.999 C28.918,83.561 29.936,83.799 27.731,83.286 C27.701,86.305 28.768,92.425 25.241,93.917 L25.242,93.924 L16.637,95.116 L16.363,93.134 L22.806,92.242 C20.388,88.622 19.948,84.081 19.334,79.866 C18.912,76.076 18.479,72.183 19.147,68.392 C19.223,67.956 19.369,67.535 19.48,67.107 L10.782,68.488 L10.468,66.512 L21.372,64.781 L21.418,64.768 L21.418,64.768 L21.448,64.769 L21.468,64.766 z M22.727,82.41 C22.079,82.431 22.392,82.402 21.786,82.491 L21.777,82.491 C22.928,87.601 22.315,85.488 23.402,88.886 C24.123,90.876 24.876,91.949 24.975,91.936 C25.39,91.171 25.481,90.231 25.624,89.386 C25.891,87.211 25.845,85.011 25.696,82.828 C24.2,82.519 24.971,82.659 23.382,82.414 L22.727,82.41 z M61.494,66.775 L60.15,66.915 C59.01,67.077 57.822,67.342 56.343,67.74 C56.07,67.814 54.029,68.384 53.532,68.51 C52.503,68.769 51.888,68.86 51.378,68.751 C41.414,66.623 35.105,67.438 28.199,70.458 C27.568,70.734 25.312,71.767 24.799,71.99 C23.528,72.545 22.538,72.909 21.561,73.153 C20.99,73.282 21.216,73.24 20.887,73.299 C21.064,77.85 20.897,75.749 21.317,79.607 L21.457,80.519 L21.464,80.517 C23.363,80.207 23.465,80.227 31.244,82.052 C37.974,83.631 42.518,84.092 47.225,83.162 C47.5,83.108 47.774,83.049 48.046,82.984 C49.575,82.621 50.075,82.454 56.572,80.211 C56.891,80.101 57.184,80 57.465,79.904 C58.852,79.429 59.984,79.051 61.031,78.718 C61.789,78.477 62.608,78.29 63.822,78.064 C71.718,76.592 74.142,75.944 80.477,72.917 C80.731,72.796 80.99,72.681 81.255,72.571 C82.238,72.165 83.261,71.849 84.436,71.564 C85.046,71.416 86.812,71.038 86.99,70.996 C87.52,70.872 87.863,70.768 88.069,70.669 L88.074,70.673 C88.339,68.762 88.001,67.525 86.061,66.966 C84.445,66.625 82.032,66.958 78.701,67.872 C77.907,68.09 77.077,68.335 76.068,68.646 C76.309,68.571 73.163,69.553 72.398,69.778 C71.453,70.057 70.581,70.311 69.802,70.535 C69.161,70.72 69.404,70.65 69.074,70.745 C68.514,72.672 65.313,73.208 63.611,73.669 C63.617,73.667 56.922,75.183 54.693,75.794 C51.253,76.737 48.819,76.911 46.186,76.499 C44.909,76.299 39.984,75.087 39.76,75.038 C39.682,75.02 39.682,75.02 39.603,75.003 C39.063,74.885 38.722,74.352 38.84,73.812 C38.958,73.273 39.491,72.931 40.03,73.049 C40.111,73.067 40.111,73.067 40.192,73.085 C40.494,73.152 45.319,74.339 46.495,74.523 C48.837,74.89 50.988,74.736 54.164,73.865 C56.446,73.24 63.175,71.717 63.13,71.728 C66.518,70.887 67.468,70.284 67.206,69.605 C66.047,66.931 64.069,66.89 61.494,66.775 z M21.643,66.791 C21.164,67.819 21.083,68.993 20.943,70.103 L20.886,71.256 L21.076,71.213 C21.89,71.009 22.678,70.715 23.45,70.389 C23.18,69.408 22.735,68.497 22.264,67.603 C22.043,67.229 21.837,66.963 21.668,66.818 L21.643,66.791 z" fill="#000000"/><path d="M53.638,61.7 C54.389,62.169 54.173,61.871 54.441,62.46 C54.566,62.999 54.23,63.536 53.692,63.66 C52.38,63.964 51.027,64.184 49.535,64.324 C48.986,64.375 48.498,63.971 48.446,63.421 C48.395,62.872 48.799,62.384 49.349,62.332 C50.751,62.201 52.016,61.995 53.242,61.712 L53.638,61.7 z" fill="#000000"/><path d="M57.578,57.503 C58.369,57.898 58.126,57.622 58.449,58.184 C58.623,58.708 58.34,59.274 57.816,59.449 C53.296,60.955 50.555,61.5 45.5,61.5 C44.948,61.5 44.5,61.052 44.5,60.5 C44.5,59.948 44.948,59.5 45.5,59.5 C50.312,59.5 52.851,58.995 57.184,57.551 L57.578,57.503 z" fill="#000000"/><path d="M57.578,54.503 C58.369,54.898 58.126,54.622 58.449,55.184 C58.623,55.708 58.34,56.274 57.816,56.449 C53.296,57.955 50.555,58.5 45.5,58.5 C44.948,58.5 44.5,58.052 44.5,57.5 C44.5,56.948 44.948,56.5 45.5,56.5 C50.312,56.5 52.851,55.995 57.184,54.551 L57.578,54.503 z" fill="#000000"/><path d="M57.578,51.503 C58.369,51.898 58.126,51.622 58.449,52.184 C58.623,52.708 58.34,53.274 57.816,53.449 C53.296,54.955 50.555,55.5 45.5,55.5 C44.948,55.5 44.5,55.052 44.5,54.5 C44.5,53.948 44.948,53.5 45.5,53.5 C50.312,53.5 52.851,52.995 57.184,51.551 L57.578,51.503 z" fill="#000000"/><path d="M51.4,4.521 C61.637,4.686 68.997,12.65 69.5,22.62 L69.5,22.621 C69.5,28.116 68.055,31.098 64.013,36.139 C63.896,36.284 63.896,36.284 63.78,36.429 C59.837,41.347 58.5,44.14 58.5,49.521 L58.494,49.551 C58.498,49.589 58.501,49.57 58.483,49.607 C58.405,49.993 58.494,49.837 58.241,50.09 C58.128,50.316 58.213,50.221 57.972,50.359 C57.855,50.476 57.928,50.434 57.748,50.471 C53.809,51.969 49.68,52.439 45.5,52.5 L45.5,52.5 L45.435,52.487 C44.861,52.463 44.6,51.997 44.5,51.5 L44.5,49.521 C44.5,44.144 43.139,41.353 39.125,36.436 C39.007,36.291 39.007,36.291 38.889,36.146 C35.143,31.761 33.51,28.383 33.3,22.621 L33.3,22.621 C33.3,12.624 41.404,4.521 51.4,4.521 z M51.4,6.521 L49.754,6.604 C41.328,7.827 36.042,14.389 35.3,22.62 L35.3,22.621 C35.3,27.557 36.586,30.163 40.438,34.881 C40.556,35.026 40.556,35.026 40.675,35.171 C44.953,40.411 46.5,43.586 46.5,49.521 L46.5,49.521 L46.5,50.486 C49.936,50.546 53.277,49.809 56.526,48.763 C56.363,43.443 59.105,39.206 62.22,35.178 C62.336,35.033 62.336,35.033 62.452,34.888 C65.817,30.887 67.316,27.849 67.5,22.621 L67.5,22.621 C67.5,13.729 60.292,6.521 51.4,6.521 z" fill="#000000"/></g><text x="NaN" y="NaN" fill="#000000" font-size="5px" font-weight="bold" font-family="'Helvetica Neue', Helvetica, Arial-Unicode, Arial, Sans-serif">Created by Chris Homan</text><text x="NaN" y="NaN" fill="#000000" font-size="5px" font-weight="bold" font-family="'Helvetica Neue', Helvetica, Arial-Unicode, Arial, Sans-serif">from the Noun Project</text></svg>