<svg xmlns="http://www.w3.org/2000/svg" xmlns:xlink="http://www.w3.org/1999/xlink" version="1.1" x="0px" y="0px" viewBox="0 0 100 125" style="enable-background:new 0 0 100 100;" xml:space="preserve"><path d="M71,69.4l0.4-0.5c6-7,9.3-15.8,9.3-25c0-21.1-17.2-38.3-38.3-38.3C21.3,5.6,4.1,22.8,4.1,43.9s17.2,38.3,38.3,38.3  c8.6,0,16.8-2.8,23.6-8.1l0.4-0.3l25.2,20.4l3.9-4.8L71,69.4z M42.4,76c-17.7,0-32.1-14.4-32.1-32.1c0-17.7,14.4-32.1,32.1-32.1  c17.7,0,32.1,14.4,32.1,32.1C74.5,61.6,60.1,76,42.4,76z"/><path d="M54.4,40.5h-8.7v-8.7c0-1.9-1.5-3.4-3.4-3.4s-3.4,1.5-3.4,3.4v8.7h-8.7c-1.9,0-3.4,1.5-3.4,3.4c0,1.9,1.5,3.4,3.4,3.4h8.7  V56c0,1.9,1.5,3.4,3.4,3.4s3.4-1.5,3.4-3.4v-8.7h8.7c1.9,0,3.4-1.5,3.4-3.4C57.7,42,56.2,40.5,54.4,40.5z"/><text x="0" y="115" fill="#000000" font-size="5px" font-weight="bold" font-family="'Helvetica Neue', Helvetica, Arial-Unicode, Arial, Sans-serif">Created by Aneeque Ahmed</text><text x="0" y="120" fill="#000000" font-size="5px" font-weight="bold" font-family="'Helvetica Neue', Helvetica, Arial-Unicode, Arial, Sans-serif">from the Noun Project</text></svg>