<svg xmlns="http://www.w3.org/2000/svg" xmlns:xlink="http://www.w3.org/1999/xlink" version="1.1" x="0px" y="0px" viewBox="0 0 100 125" enable-background="new 0 0 100 100" xml:space="preserve"><g><path d="M49.876,33.14c2.979,0,5.401-2.423,5.401-5.401s-2.423-5.402-5.401-5.402s-5.401,2.423-5.401,5.402   S46.897,33.14,49.876,33.14z M49.045,24.451c0.104,0.441,0.482,0.775,0.955,0.775c1.385,0,2.512,1.127,2.512,2.512   S51.385,30.25,50,30.25c-0.473,0-0.85,0.334-0.955,0.775c-1.473-0.373-2.571-1.699-2.571-3.287   C46.475,26.15,47.572,24.824,49.045,24.451z"/><path d="M53.822,39.208c0-2.176-1.771-3.946-3.946-3.946s-3.946,1.771-3.946,3.946s1.771,3.946,3.946,3.946   S53.822,41.384,53.822,39.208z M47.93,39.208c0-0.889,0.603-1.633,1.419-1.864c0.118,0.42,0.488,0.735,0.946,0.735   c0.623,0,1.13,0.507,1.13,1.13c0,0.623-0.507,1.129-1.13,1.129c-0.459,0-0.828,0.315-0.947,0.735   C48.532,40.841,47.93,40.097,47.93,39.208z"/><path d="M50.876,62.793v-5.223h3.438l8.759,6.417v-18.01l-4.769-1.837c0.275-2.748,0.422-5.661,0.422-8.655   c0-14.802-7.688-26.621-8.016-27.116l-0.835-1.265l-0.835,1.265c-0.327,0.496-8.016,12.314-8.016,27.116   c0,2.993,0.147,5.904,0.422,8.65l-4.77,1.838v18.01l8.753-6.412h3.447v5.223H50.876z M61.073,47.351v12.692l-5.229-3.83   c0.981-2.767,1.738-6.193,2.228-10.018L61.073,47.351z M49.876,10.87c0.776,1.373,1.987,3.701,3.177,6.692h-6.354   C47.889,14.571,49.1,12.242,49.876,10.87z M38.677,47.346l3.003-1.157c0.49,3.825,1.246,7.251,2.227,10.018l-5.23,3.831V47.346z    M45.799,55.571c-1.767-4.963-2.773-12.226-2.773-20.085c0-5.978,1.354-11.506,2.923-15.923h7.854   c1.57,4.417,2.923,9.945,2.923,15.923c0,7.859-1.007,15.122-2.773,20.085h-3.077V44.208h-2v11.362H45.799z"/><path d="M76.203,79.707c-1.628,0-3.219,0.478-4.574,1.359c-0.314-0.342-0.656-0.658-1.024-0.944   c-1.105-3.446-4.337-5.824-7.979-5.824c-1.058,0-2.091,0.199-3.077,0.591c-1.537-0.827-2.336-1.36-2.886-3.677   c-0.657-2.773-0.645-9.356-0.645-9.423c0.001-0.266-0.116-0.521-0.304-0.709c-0.392-0.393-1.11-0.369-1.474,0.048   c-0.454,0.52-0.989,0.963-1.589,1.316c-0.25,0.147-0.421,0.394-0.475,0.672c-0.245-0.148-0.545-0.183-0.819-0.097   c-0.339,0.108-0.694,0.188-1.056,0.237c-0.259,0.036-0.482,0.167-0.638,0.356c-0.167-0.177-0.398-0.292-0.659-0.31   c-0.353-0.023-0.708-0.078-1.057-0.161c-0.27-0.065-0.552-0.014-0.779,0.135c-0.082-0.255-0.265-0.472-0.515-0.593   c-0.529-0.258-1.019-0.584-1.453-0.97c-0.304-0.27-0.742-0.328-1.104-0.148c-0.364,0.179-0.584,0.561-0.557,0.966   c0.111,1.589,0.265,5.592-0.686,8.446c-0.892,2.671-1.933,4.29-2.402,4.938c-0.298,0.005-0.659,0.011-0.844,0.011   c-3.964,0-7.294,2.74-8.159,6.472c-2.166-0.958-4.772-0.939-6.95,0.083c-0.524-0.112-1.048-0.169-1.562-0.169   c-4.151,0-7.528,3.377-7.528,7.527c0,0.475,0.046,0.955,0.137,1.428c0.091,0.471,0.503,0.811,0.982,0.811H82.96   c0.396,0,0.754-0.233,0.914-0.595c0.476-1.074,0.717-2.214,0.717-3.39C84.591,83.47,80.828,79.707,76.203,79.707z M82.274,90.08   h-64.86c-0.003-0.08-0.005-0.159-0.005-0.239c0-3.511,3.309-6.3,6.953-5.334c0.241,0.063,0.502,0.035,0.724-0.082   c0.298-0.158,0.609-0.282,0.925-0.388c-0.56,0.523-0.985,1.176-1.207,1.929c-0.156,0.53,0.146,1.086,0.676,1.243   c0.531,0.156,1.085-0.146,1.242-0.675c0.178-0.602,0.579-1.099,1.131-1.398c0.553-0.3,1.187-0.368,1.788-0.189   c1.242,0.368,1.954,1.677,1.587,2.919c-0.156,0.53,0.146,1.086,0.676,1.243c0.095,0.028,0.189,0.042,0.283,0.042   c0.432,0,0.83-0.282,0.959-0.717c0.368-1.246,0.135-2.519-0.507-3.541c0.015-0.006,0.03-0.008,0.045-0.015   c0.325-0.162,0.537-0.487,0.554-0.85c0.154-3.419,2.953-6.098,6.372-6.098c0.356,0,1.36-0.02,1.36-0.02   c0.278-0.006,0.542-0.127,0.728-0.336c0.069-0.079,1.726-1.972,3.056-5.96c0.578-1.736,0.794-3.803,0.853-5.603   c0.32,0.398,0.813,0.653,1.362,0.653c0.549,0,1.039-0.254,1.36-0.651c0.321,0.396,0.812,0.651,1.36,0.651s1.04-0.254,1.361-0.651   c0.32,0.397,0.812,0.651,1.36,0.651c0.793,0,1.465-0.531,1.679-1.256c0.08,2.125,0.255,4.693,0.629,6.269   c0.787,3.323,2.271,4.116,4.149,5.12l0.162,0.086c0.278,0.149,0.61,0.159,0.896,0.024c0.859-0.402,1.768-0.606,2.7-0.606   c2.666,0,5.024,1.684,5.951,4.145c-0.644-0.112-1.306-0.094-1.95,0.095c-2.303,0.67-3.631,3.089-2.961,5.391   c0.127,0.437,0.526,0.721,0.96,0.721c0.092,0,0.187-0.013,0.279-0.041c0.53-0.154,0.835-0.709,0.681-1.239   c-0.361-1.244,0.356-2.55,1.6-2.913c0.603-0.175,1.237-0.106,1.788,0.197c0.55,0.302,0.949,0.8,1.125,1.403   c0.153,0.529,0.702,0.833,1.239,0.681c0.53-0.154,0.835-0.709,0.681-1.24c-0.021-0.073-0.059-0.137-0.083-0.208   c0.055-0.031,0.117-0.048,0.165-0.089c1.149-0.964,2.606-1.496,4.104-1.496c3.522,0,6.388,2.866,6.388,6.388   C82.591,88.776,82.484,89.441,82.274,90.08z"/></g><text x="0" y="115" fill="#000000" font-size="5px" font-weight="bold" font-family="'Helvetica Neue', Helvetica, Arial-Unicode, Arial, Sans-serif">Created by NOPIXEL</text><text x="0" y="120" fill="#000000" font-size="5px" font-weight="bold" font-family="'Helvetica Neue', Helvetica, Arial-Unicode, Arial, Sans-serif">from the Noun Project</text></svg>