<svg xmlns="http://www.w3.org/2000/svg" xmlns:xlink="http://www.w3.org/1999/xlink" version="1.1" x="0px" y="0px" viewBox="0 0 100 125" enable-background="new 0 0 100 100" xml:space="preserve"><path d="M96.4,77.3H80.8c-1.1,0-2-0.9-2-2s0.9-2,2-2h13.7v-3.1c0-0.5-0.2-0.9-0.6-1.2c-4.4-3.7-9.3-6.1-10.2-6.5  c-0.8-0.4-1.3-1.2-1.3-2.1v-7.2c0-0.7,0.3-1.3,0.9-1.7c0.4-0.3,0.6-0.7,0.6-1.1v-7.4c0-2.6-2.1-4.7-4.7-4.7h-1.6  c-2.6,0-4.7,2.1-4.7,4.7v7.4c0,0.5,0.2,0.9,0.6,1.1c0.6,0.4,0.9,1,0.9,1.7v3.4c0,1.1-0.9,2-2,2s-2-0.9-2-2v-2.5  c-1-1-1.5-2.3-1.5-3.7v-7.4c0-4.8,3.9-8.7,8.7-8.7h1.6c4.8,0,8.7,3.9,8.7,8.7v7.4c0,1.4-0.5,2.7-1.5,3.7v5.2c1.9,1,6.1,3.4,10,6.6  c1.3,1.1,2,2.6,2,4.3v5.1C98.4,76.4,97.5,77.3,96.4,77.3z M21.5,75.3c0-1.1-0.9-2-2-2H5.6v-3.1c0-0.5,0.2-0.9,0.6-1.2  c4.4-3.6,9.3-6.1,10.2-6.5c0.8-0.4,1.3-1.2,1.3-2.1v-7.2c0-0.7-0.3-1.3-0.9-1.7c-0.4-0.3-0.6-0.7-0.6-1.1v-7.4  c0-2.6,2.1-4.7,4.7-4.7h1.6c2.6,0,4.7,2.1,4.7,4.7v7.4c0,0.5-0.2,0.9-0.6,1.1c-0.6,0.4-0.9,1-0.9,1.7v3.6c0,1.1,0.9,2,2,2s2-0.9,2-2  v-2.7c1-1,1.5-2.3,1.5-3.7v-7.4c0-4.8-3.9-8.7-8.7-8.7h-1.6c-4.8,0-8.7,3.9-8.7,8.7v7.4c0,1.4,0.5,2.7,1.5,3.7v5.2  c-1.9,1-6.1,3.4-10,6.6c-1.3,1.1-2,2.6-2,4.3v5.1c0,1.1,0.9,2,2,2h15.9C20.6,77.3,21.5,76.4,21.5,75.3z M75.5,75.3v-6.6  c0-2-0.9-3.9-2.4-5.1c-5.3-4.3-10.9-7.4-13.2-8.6v-7.4c1.2-1.2,1.9-2.8,1.9-4.6v-9.6c0-5.9-4.8-10.7-10.7-10.7H49  c-5.9,0-10.7,4.8-10.7,10.7V43c0,1.7,0.7,3.4,1.9,4.6v7.4c-2.3,1.2-7.9,4.3-13.2,8.6c-1.5,1.3-2.4,3.1-2.4,5.1v6.6c0,1.1,0.9,2,2,2  h46.8C74.6,77.3,75.5,76.4,75.5,75.3z M28.7,68.7c0-0.8,0.4-1.6,1-2.1c5.8-4.8,12.1-7.9,13.3-8.5c0.8-0.4,1.4-1.3,1.4-2.2v-9.3  c0-0.7-0.3-1.3-0.9-1.7c-0.7-0.4-1-1.2-1-1.9v-9.6c0-3.7,3-6.7,6.7-6.7h2.1c3.7,0,6.7,3,6.7,6.7V43c0,0.8-0.4,1.5-1,1.9  c-0.6,0.4-0.9,1-0.9,1.7v9.3c0,0.9,0.5,1.8,1.4,2.2c1.2,0.6,7.5,3.8,13.3,8.5c0.6,0.5,1,1.3,1,2.1v4.6H28.7V68.7z"/><text x="0" y="115" fill="#000000" font-size="5px" font-weight="bold" font-family="'Helvetica Neue', Helvetica, Arial-Unicode, Arial, Sans-serif">Created by Gregor Cresnar</text><text x="0" y="120" fill="#000000" font-size="5px" font-weight="bold" font-family="'Helvetica Neue', Helvetica, Arial-Unicode, Arial, Sans-serif">from the Noun Project</text></svg>