<svg xmlns="http://www.w3.org/2000/svg" xmlns:xlink="http://www.w3.org/1999/xlink" version="1.1" x="0px" y="0px" viewBox="0 0 90 112.5" enable-background="new 0 0 90 90" xml:space="preserve"><g><path d="M84.038,20.909c-1.121,0-2.029,0.908-2.029,2.029c0,0.1,0.016,0.195,0.029,0.289c-3.805,3.23-4.667,8.109-5.473,12.879   c-0.782-0.141-1.61-0.125-2.461,0.057c-1.623-5.281-5.209-9.367-9.625-12.582c0.002-0.039,0.012-0.076,0.012-0.117   c0-1.207-0.979-2.186-2.186-2.186s-2.186,0.979-2.186,2.186s0.979,2.186,2.186,2.186c0.324,0,0.63-0.074,0.906-0.201   c4.036,2.932,7.313,6.641,8.775,11.48c-2.588,1.283-4.614,3.645-6.579,5.961c-1.365,1.613-2.656,3.137-4.033,4.158   c-1.016,0.754-2.08,1.416-3.162,2.041c-1.555-5.986-5.256-10.986-10.516-14.158c-5.463-3.293-12.096-4.342-18.682-2.949   c-5.297,1.119-9.84,4.234-12.795,8.771s-3.965,9.953-2.848,15.252c0.209,0.988,0.506,1.936,0.875,2.84   c-3.188,0.453-6.344,1.166-8.717,2.762c-1.27,0.854-1.787,1.801-1.539,2.812c0.336,1.365,1.885,2.102,5.182,2.465   c4.508,0.496,8.234,0.729,13.754,0.855c0.012,0,0.021,0,0.033,0c0.018,0,0.033-0.004,0.049-0.004   c2.021,0.871,4.227,1.355,6.502,1.355c1.127,0,2.27-0.117,3.414-0.357c1.297-0.275,2.508-0.734,3.617-1.336   c0.039,0.002,0.078,0.012,0.117,0.012h0.002c1.732-0.002,3.465,0.021,5.234,0.047c1.793,0.025,3.596,0.051,5.402,0.051   c7.736,0,15.514-0.467,22.6-3.408c8.096-3.357,14.848-13.264,11.998-22.658c-0.618-2.043-1.759-3.59-3.202-4.5   c0.706-4.266,1.282-9.182,4.831-12.045c0.165,0.043,0.334,0.072,0.513,0.072c1.121,0,2.029-0.908,2.029-2.029   S85.159,20.909,84.038,20.909z M9.48,64.101c-0.982-0.109-1.648-0.238-2.098-0.355c2.145-1.312,5.201-1.873,8.244-2.26   c0.791,1.232,1.738,2.338,2.807,3.305C15.258,64.651,12.59,64.442,9.48,64.101z M32.348,65.993   c-7.391,1.561-14.672-3.18-16.234-10.568c-0.965-4.564-0.092-9.232,2.453-13.143c2.547-3.912,6.463-6.596,11.029-7.561   c5.891-1.244,11.805-0.318,16.656,2.607c4.811,2.902,8.129,7.555,9.396,13.115c-4.109,1.977-8.383,3.219-12.084,4.107   c-0.045-0.594-0.113-1.191-0.24-1.791c-0.611-2.891-2.311-5.371-4.787-6.982c-2.477-1.613-5.432-2.162-8.322-1.551   c-2.385,0.504-4.432,1.906-5.762,3.949s-1.785,4.48-1.283,6.865c0.865,4.092,4.896,6.723,8.988,5.854   c3.424-0.725,5.619-4.1,4.896-7.52c-0.295-1.402-1.119-2.604-2.318-3.385c-1.199-0.779-2.629-1.049-4.031-0.748   c-0.756,0.16-1.238,0.902-1.078,1.66c0.16,0.754,0.895,1.244,1.66,1.078c0.666-0.141,1.35-0.016,1.922,0.357   c0.572,0.371,0.965,0.945,1.105,1.615c0.404,1.912-0.822,3.799-2.734,4.203c-2.588,0.547-5.125-1.113-5.67-3.693   c-0.35-1.652-0.033-3.344,0.889-4.76s2.342-2.387,3.996-2.736c2.158-0.455,4.367-0.047,6.215,1.156   c1.85,1.205,3.117,3.057,3.574,5.215C41.801,59.099,38.105,64.776,32.348,65.993z M68.826,61.513   c-8.209,3.406-17.707,3.271-26.891,3.145c-0.629-0.01-1.248-0.018-1.867-0.025c1.807-1.98,3.004-4.477,3.395-7.174   c5.865-1.371,13.359-3.541,19.582-8.162c1.635-1.215,3.092-2.934,4.5-4.596c2.137-2.521,4.346-5.129,7.025-5.779   c2.5-0.607,4.066,1.416,4.646,3.332C81.625,50.196,75.789,58.624,68.826,61.513z"/></g><text x="0" y="105" fill="#000000" font-size="5px" font-weight="bold" font-family="'Helvetica Neue', Helvetica, Arial-Unicode, Arial, Sans-serif">Created by Lele Saa</text><text x="0" y="110" fill="#000000" font-size="5px" font-weight="bold" font-family="'Helvetica Neue', Helvetica, Arial-Unicode, Arial, Sans-serif">from the Noun Project</text></svg>