<svg xmlns="http://www.w3.org/2000/svg" xmlns:xlink="http://www.w3.org/1999/xlink" version="1.1" x="0px" y="0px" viewBox="-247 370.9 100 125" enable-background="new -247 370.9 100 100" xml:space="preserve"><path fill="#000000" d="M-203.8,422.2c0,0.1,0,0.1,0,0.2c0,0.1,0,0.1,0,0.2c0,0.1,0,0.1,0.1,0.2c0,0.1,0,0.1,0.1,0.2  c0,0.1,0.1,0.1,0.1,0.2c0,0,0.1,0.1,0.1,0.1c0,0,0.1,0.1,0.1,0.1c0,0,0.1,0.1,0.1,0.1c0,0,0.1,0.1,0.1,0.1c0.1,0,0.1,0.1,0.2,0.1  c0,0,0.1,0,0.1,0.1c0,0,0,0,0,0c0.1,0,0.2,0.1,0.3,0.1c0,0,0.1,0,0.1,0c0.1,0,0.2,0,0.3,0c0,0,0,0,0.1,0c0,0,0,0,0,0h4.6l-1.4,3  c-0.4,0.9,0,2,0.9,2.4c0.3,0.1,0.5,0.2,0.8,0.2c0.7,0,1.3-0.4,1.6-1l2.6-5.6c0,0,0,0,0,0c0-0.1,0-0.1,0.1-0.2c0-0.1,0-0.1,0-0.2  c0-0.1,0-0.1,0-0.2c0-0.1,0-0.1,0-0.2c0,0,0,0,0,0c0,0,0-0.1,0-0.1c0-0.1,0-0.1,0-0.2c0-0.1,0-0.1,0-0.2c0-0.1,0-0.1-0.1-0.2  c0-0.1,0-0.1-0.1-0.2c0-0.1-0.1-0.1-0.1-0.2c0,0-0.1-0.1-0.1-0.1c0,0-0.1-0.1-0.1-0.1c0,0-0.1-0.1-0.1-0.1c0,0-0.1-0.1-0.1-0.1  c-0.1,0-0.1-0.1-0.2-0.1c0,0-0.1,0-0.1-0.1c0,0,0,0,0,0c-0.1,0-0.1,0-0.2-0.1c-0.1,0-0.1,0-0.2,0c0,0-0.1,0-0.2,0  c-0.1,0-0.1,0-0.2,0c0,0,0,0,0,0h-4.6l3.6-7.6c0.4-0.9,0-2-0.9-2.4c-0.9-0.4-2,0-2.4,0.9l-4.8,10.1c0,0,0,0,0,0c0,0.1,0,0.1-0.1,0.2  c0,0.1,0,0.1,0,0.2c0,0.1,0,0.1,0,0.2c0,0.1,0,0.1,0,0.2c0,0,0,0,0,0C-203.8,422.1-203.8,422.2-203.8,422.2z"/><circle fill="#000000" cx="-209" cy="411.9" r="1.8"/><circle fill="#000000" cx="-185.4" cy="411.9" r="1.8"/><path fill="#000000" d="M-179.1,437.8c2.7-2,4.7-4.9,5.4-8.2h2.8v1.2c0,1,0.8,1.8,1.8,1.8c1,0,1.8-0.8,1.8-1.8v-6.1  c0-1-0.8-1.8-1.8-1.8c-1,0-1.8,0.8-1.8,1.8v1.2h-2.5v-23.7c0-1.3-0.2-2.6-0.5-3.8c1.3-1.5,1.5-3.7,0.3-5.4  c-3.1-4.5-8.1-7.1-13.5-7.1h-20.4c-5.4,0-10.4,2.7-13.5,7.1c-1.2,1.7-1,3.9,0.3,5.4c-0.3,1.2-0.5,2.5-0.5,3.8V426h-2.5v-1.2  c0-1-0.8-1.8-1.8-1.8c-1,0-1.8,0.8-1.8,1.8v6.1c0,1,0.8,1.8,1.8,1.8c1,0,1.8-0.8,1.8-1.8v-1.2h2.8c0.7,3.4,2.7,6.3,5.5,8.3  c-10,3-17.3,12.2-17.3,23.1c0,1,0.8,1.8,1.8,1.8h67.5c1,0,1.8-0.8,1.8-1.8C-161.6,450-169,440.7-179.1,437.8z M-165.3,459.2h-30  v-3.7l11-2.5c0,0,0,0,0,0l0,0c0,0,0.1,0,0.1,0c0.1,0,0.1,0,0.2-0.1c0.1,0,0.1-0.1,0.1-0.1c0.1,0,0.1-0.1,0.2-0.1  c0,0,0.1-0.1,0.1-0.1c0,0,0.1-0.1,0.1-0.1c0,0,0.1-0.1,0.1-0.1c0,0,0.1-0.1,0.1-0.1c0,0,0.1-0.1,0.1-0.1c0-0.1,0.1-0.1,0.1-0.2  c0-0.1,0-0.1,0.1-0.2c0-0.1,0-0.1,0-0.2c0-0.1,0-0.1,0-0.2c0,0,0-0.1,0-0.1V449h2.3c0,0,0,0,0,0s0,0,0,0c1,0,1.8-0.8,1.8-1.8v-5.4  C-171.4,444.4-166,451.2-165.3,459.2z M-207.8,447.2c0-1-0.8-1.8-1.8-1.8h-2.3v-4.6c0.8-0.1,1.6-0.2,2.5-0.3l8,10.7l-6.3-1.4V447.2z   M-182.4,445.4h-2.3c-1,0-1.8,0.8-1.8,1.8v2.7l-6.3,1.4l8-10.7c0.8,0,1.7,0.1,2.5,0.3V445.4z M-197.2,451.1l-7.9-10.6h15.8  L-197.2,451.1z M-217.7,426.7v-24.4c0-0.8,0.1-1.5,0.3-2.3c1.4,0,2.8-0.7,3.7-1.9c1.1-1.5,2.6-2.6,4.3-3l-0.9,2l-0.9,2  c-0.4,0.9,0,2,0.9,2.4c0.2,0.1,0.5,0.2,0.7,0.2c0.7,0,1.3-0.4,1.6-1.1l0.2-0.4l1.7,0.7l-0.6,2.6c0,0,0,0.1,0,0.1c0,0.1,0,0.1,0,0.2  c0,0.1,0,0.1,0,0.2c0,0.1,0,0.1,0,0.2c0,0.1,0,0.1,0,0.2c0,0.1,0,0.1,0,0.2c0,0.1,0,0.1,0.1,0.2c0,0.1,0,0.1,0.1,0.2  c0,0.1,0.1,0.1,0.1,0.1c0,0,0.1,0.1,0.1,0.1c0.1,0.1,0.1,0.1,0.2,0.2c0,0,0.1,0.1,0.1,0.1l0,0c0,0,0,0,0,0l3,2.2  c0.3,0.2,0.7,0.4,1.1,0.4c0.6,0,1.1-0.3,1.5-0.7c0.6-0.8,0.4-1.9-0.4-2.5l-2.1-1.6l0.6-2.9c0,0,0,0,0,0c0-0.1,0-0.1,0-0.2  c0-0.1,0-0.1,0-0.2c0-0.1,0-0.1,0-0.2c0-0.1,0-0.1,0-0.2c0-0.1,0-0.1,0-0.2c0-0.1,0-0.1-0.1-0.2c0-0.1-0.1-0.1-0.1-0.2  c0-0.1-0.1-0.1-0.1-0.2c0,0-0.1-0.1-0.1-0.1c0,0-0.1-0.1-0.1-0.1c0,0-0.1-0.1-0.1-0.1c0,0-0.1-0.1-0.1-0.1c0,0-0.1-0.1-0.1-0.1  c-0.1,0-0.1-0.1-0.2-0.1c0,0,0,0,0,0l-3-1.2l0.8-1.9h18.2c2.4,0,4.7,1.2,6.2,3.3c0.9,1.3,2.3,1.9,3.7,1.9c0,0,0,0,0,0  c0.2,0.7,0.3,1.5,0.3,2.3v24.4c0,5.6-4.5,10.1-10.1,10.1h-20.4C-213.1,436.8-217.7,432.3-217.7,426.7z M-215.6,441.8v5.4  c0,1,0.8,1.8,1.8,1.8c0,0,0,0,0,0s0,0,0,0h2.3v2.3c0,0,0,0.1,0,0.1c0,0.1,0,0.1,0,0.2c0,0.1,0,0.1,0,0.2c0,0.1,0,0.1,0.1,0.2  c0,0.1,0.1,0.1,0.1,0.2c0,0,0,0.1,0.1,0.1c0,0,0.1,0.1,0.1,0.1c0,0,0.1,0.1,0.1,0.1c0,0,0.1,0.1,0.1,0.1c0,0,0.1,0.1,0.1,0.1  c0.1,0,0.1,0.1,0.2,0.1c0,0,0.1,0.1,0.1,0.1c0.1,0,0.1,0,0.2,0.1c0,0,0.1,0,0.1,0l0,0c0,0,0,0,0,0l11,2.5v3.7H-229  C-228.3,451.2-222.9,444.4-215.6,441.8z"/><text x="-247" y="485.9" fill="#000000" font-size="5px" font-weight="bold" font-family="'Helvetica Neue', Helvetica, Arial-Unicode, Arial, Sans-serif">Created by Carl Holderness</text><text x="-247" y="490.9" fill="#000000" font-size="5px" font-weight="bold" font-family="'Helvetica Neue', Helvetica, Arial-Unicode, Arial, Sans-serif">from the Noun Project</text></svg>