<svg xmlns="http://www.w3.org/2000/svg" xmlns:xlink="http://www.w3.org/1999/xlink" version="1.1" x="0px" y="0px" viewBox="-247 370.9 100 125" enable-background="new -247 370.9 100 100" xml:space="preserve"><path fill="#000000" d="M-184.5,436.9c7.9-4.4,13.2-12.9,13.2-22.5c0-1.7-0.2-3.4-0.5-5c0-0.1,0-0.1,0-0.2  c-1.5-7.4-6.3-13.8-12.8-17.4c-0.2-0.2-0.5-0.4-0.8-0.4c0,0,0,0,0,0c-1.8-0.9-3.8-1.7-5.8-2.1c1-1.3,1.6-2.9,1.6-4.7  c0-4.3-3.5-7.7-7.7-7.7c-7.5,0-13.6,6.1-13.6,13.6c0,0.7,0.1,1.3,0.1,2c-6.1,3.8-10.2,9.9-11.6,16.8c0,0,0,0.1,0,0.2  c-0.3,1.6-0.5,3.3-0.5,5c0,9.7,5.3,18.1,13.2,22.5c-12.7,0.6-22.9,11.2-22.9,24.1c0,1,0.8,1.8,1.8,1.8h67.5c1,0,1.8-0.8,1.8-1.8  C-161.6,448.1-171.8,437.5-184.5,436.9z M-165.3,459.2h-30v-3.7l11-2.5c0,0,0,0,0,0l0,0c0,0,0.1,0,0.1,0c0.1,0,0.1,0,0.2-0.1  c0.1,0,0.1-0.1,0.1-0.1c0.1,0,0.1-0.1,0.2-0.1c0,0,0.1-0.1,0.1-0.1c0,0,0.1-0.1,0.1-0.1c0,0,0.1-0.1,0.1-0.1c0,0,0.1-0.1,0.1-0.1  c0,0,0.1-0.1,0.1-0.1c0-0.1,0.1-0.1,0.1-0.2c0-0.1,0-0.1,0.1-0.2c0-0.1,0-0.1,0-0.2c0-0.1,0-0.1,0-0.2c0,0,0-0.1,0-0.1v-2.3h2.3  c0,0,0,0,0,0c0,0,0,0,0,0c1,0,1.8-0.8,1.8-1.8v-5.4C-171.4,444.4-166,451.1-165.3,459.2z M-207.8,447.1c0-1-0.8-1.8-1.8-1.8h-2.3  v-4.6c0.8-0.1,1.6-0.2,2.5-0.3l8,10.7l-6.3-1.4V447.1z M-182.4,440.8v4.6h-2.3c-1,0-1.8,0.8-1.8,1.8v2.7l-6.3,1.4l8-10.7  C-184,440.5-183.2,440.6-182.4,440.8z M-197.2,451l-9.3-12.6c2.9,1.1,6,1.7,9.3,1.7c3.3,0,6.4-0.6,9.3-1.7L-197.2,451z M-212.5,416  c-1.7-1-3-2.6-3.5-4.5h5.6L-212.5,416z M-206.4,411.4h4.4c-0.8,3.1-3.6,5.4-7,5.4L-206.4,411.4z M-189.1,416c-1.7-1-3-2.6-3.5-4.5  h5.6L-189.1,416z M-182.9,411.4h4.4c-0.8,3.1-3.6,5.4-7,5.4L-182.9,411.4z M-197.4,380.4c2.3,0,4.1,1.8,4.1,4.1  c0,2.3-1.8,4.1-4.1,4.1c-1,0-1.8,0.8-1.8,1.8c0,1,0.8,1.8,1.8,1.8c0.5,0,0.9,0,1.4-0.1c0.1,0,0.1,0,0.2,0l0.1,0  c2.7,0.2,5.3,0.9,7.6,1.9c-1.5,3.8-5.1,6.4-9.3,6.4c-4.6,0-8.5-3.2-9.7-7.5c0-0.1,0-0.2-0.1-0.3c-0.2-0.7-0.3-1.5-0.3-2.3  C-207.4,384.9-202.9,380.4-197.4,380.4z M-209.8,396.1c2.1,4.7,6.9,8,12.4,8c5.6,0,10.4-3.3,12.5-8.2c4.2,2.8,7.4,7,8.9,12h-42.5  C-217,403.1-213.9,398.9-209.8,396.1z M-219.4,414.3c0-0.5,0-0.9,0-1.4c1.4,4.4,5.5,7.6,10.4,7.6c2.7,0,5.1-1,7-2.6l-1.6,3.4  c0,0,0,0,0,0c0,0.1,0,0.1-0.1,0.2c0,0.1,0,0.1,0,0.2c0,0.1,0,0.1,0,0.2c0,0.1,0,0.1,0,0.2c0,0,0,0,0,0c0,0,0,0.1,0,0.1  c0,0.1,0,0.1,0,0.2c0,0.1,0,0.1,0,0.2c0,0.1,0,0.1,0.1,0.2c0,0.1,0,0.1,0.1,0.2c0,0.1,0.1,0.1,0.1,0.2c0,0,0.1,0.1,0.1,0.1  c0,0,0.1,0.1,0.1,0.1c0,0,0.1,0.1,0.1,0.1c0,0,0.1,0.1,0.1,0.1c0.1,0,0.1,0.1,0.2,0.1c0,0,0.1,0,0.1,0.1c0,0,0,0,0,0  c0.1,0,0.2,0.1,0.3,0.1c0,0,0.1,0,0.1,0c0.1,0,0.2,0,0.3,0c0,0,0,0,0.1,0c0,0,0,0,0,0h4.6l-1.4,3c-0.4,0.9,0,2,0.9,2.4  c0.3,0.1,0.5,0.2,0.8,0.2c0.7,0,1.3-0.4,1.6-1l2.6-5.6c0,0,0,0,0,0c0-0.1,0-0.1,0.1-0.2c0-0.1,0-0.1,0-0.2c0-0.1,0-0.1,0-0.2  c0-0.1,0-0.1,0-0.2c0,0,0,0,0,0c0,0,0-0.1,0-0.1c0-0.1,0-0.1,0-0.2c0-0.1,0-0.1,0-0.2c0-0.1,0-0.1-0.1-0.2c0-0.1,0-0.1-0.1-0.2  c0-0.1-0.1-0.1-0.1-0.2c0,0-0.1-0.1-0.1-0.1c0,0-0.1-0.1-0.1-0.1c0,0-0.1-0.1-0.1-0.1c0,0-0.1-0.1-0.1-0.1c-0.1,0-0.1-0.1-0.2-0.1  c0,0-0.1,0-0.1-0.1c0,0,0,0,0,0c-0.1,0-0.1,0-0.2-0.1c-0.1,0-0.1,0-0.2,0c0,0-0.1,0-0.1,0c-0.1,0-0.1,0-0.2,0c0,0,0,0,0,0h-4.6  l3.4-7.1c1.5,4.2,5.5,7.2,10.2,7.2c5,0,9.3-3.5,10.5-8.1c0.1,0.6,0.1,1.3,0.1,2c0,12.3-10,22.2-22.2,22.2  C-209.4,436.6-219.4,426.6-219.4,414.3z M-215.6,441.7v5.4c0,1,0.8,1.8,1.8,1.8c0,0,0,0,0,0s0,0,0,0h2.3v2.3c0,0,0,0.1,0,0.1  c0,0.1,0,0.1,0,0.2c0,0.1,0,0.1,0,0.2c0,0.1,0,0.1,0.1,0.2c0,0.1,0.1,0.1,0.1,0.2c0,0,0,0.1,0.1,0.1c0,0,0.1,0.1,0.1,0.1  c0,0,0.1,0.1,0.1,0.1c0,0,0.1,0.1,0.1,0.1c0,0,0.1,0.1,0.1,0.1c0.1,0,0.1,0.1,0.2,0.1c0,0,0.1,0.1,0.1,0.1c0.1,0,0.1,0,0.2,0.1  c0,0,0.1,0,0.1,0l0,0c0,0,0,0,0,0l11,2.5v3.7H-229C-228.3,451.1-222.9,444.4-215.6,441.7z"/><path fill="#000000" d="M-203.2,392.2c1,0,1.8-0.8,1.8-1.8c0-2.2,1.8-4,4-4c1,0,1.8-0.8,1.8-1.8c0-1-0.8-1.8-1.8-1.8  c-4.2,0-7.6,3.4-7.6,7.6C-205,391.4-204.2,392.2-203.2,392.2z"/><text x="-247" y="485.9" fill="#000000" font-size="5px" font-weight="bold" font-family="'Helvetica Neue', Helvetica, Arial-Unicode, Arial, Sans-serif">Created by Carl Holderness</text><text x="-247" y="490.9" fill="#000000" font-size="5px" font-weight="bold" font-family="'Helvetica Neue', Helvetica, Arial-Unicode, Arial, Sans-serif">from the Noun Project</text></svg>