<svg xmlns="http://www.w3.org/2000/svg" xmlns:xlink="http://www.w3.org/1999/xlink" version="1.1" x="0px" y="0px" viewBox="-247 370.9 100 125" enable-background="new -247 370.9 100 100" xml:space="preserve"><path fill="#000000" d="M-230.7,462.9h67.5c1,0,1.8-0.8,1.8-1.8c0-6.3-2.4-12.3-6.9-16.9c-0.9-1-2-1.8-3-2.6v-31.5  c0-14.3-11.6-25.9-25.9-25.9c-14.3,0-25.9,11.6-25.9,25.9v31.8c-0.9,0.7-1.8,1.5-2.6,2.3c-4.4,4.5-6.9,10.5-6.9,16.9  C-232.5,462.1-231.7,462.9-230.7,462.9z M-196.9,400.7c0.1,0.2,0.2,0.3,0.3,0.5c0,0.1,0.1,0.1,0.1,0.2c0.1,0.2,0.3,0.4,0.5,0.7  c0,0,0.1,0.1,0.1,0.1c0.1,0.2,0.3,0.3,0.4,0.5c0.1,0.1,0.1,0.1,0.2,0.2c0.1,0.2,0.3,0.3,0.4,0.5c0,0,0.1,0.1,0.1,0.1  c0.2,0.2,0.4,0.4,0.6,0.5c0,0,0.1,0.1,0.1,0.1c0.2,0.1,0.3,0.3,0.5,0.4c0.1,0.1,0.1,0.1,0.2,0.2c0.2,0.1,0.3,0.3,0.5,0.4  c0,0,0.1,0.1,0.1,0.1c0.2,0.1,0.4,0.3,0.7,0.4c0.1,0,0.1,0.1,0.2,0.1c0.2,0.1,0.4,0.2,0.5,0.3c0.1,0,0.2,0.1,0.2,0.1  c0.2,0.1,0.4,0.2,0.6,0.3c0,0,0.1,0,0.1,0.1c0.2,0.1,0.5,0.2,0.8,0.3c0.1,0,0.1,0,0.2,0.1c0.2,0.1,0.4,0.1,0.6,0.2  c0.1,0,0.2,0,0.2,0.1c0.2,0.1,0.5,0.1,0.7,0.2c0,0,0.1,0,0.1,0c0.3,0.1,0.5,0.1,0.8,0.1c0.1,0,0.2,0,0.2,0c0.2,0,0.4,0,0.6,0.1  c0.1,0,0.2,0,0.3,0c0.3,0,0.6,0,0.9,0h3.9v22.2c-4.2,4.4-10,7-16.1,7c-6.1,0-12-2.5-16.1-7v-22.2h4.3c5.1,0,9.6-2.8,12-7  C-197,400.6-196.9,400.6-196.9,400.7z M-184.5,437c1.2-0.7,2.4-1.5,3.5-2.4v2.8C-182.2,437.2-183.3,437-184.5,437z M-213.3,434.6  c1.1,0.9,2.3,1.7,3.5,2.4c-1.2,0.1-2.4,0.2-3.5,0.5V434.6z M-197.2,440.3c3.7,0,7.2-0.8,10.5-2.2c-0.1,0.2-0.1,0.5-0.1,0.7  c0,5.6-4.6,10.2-10.2,10.2c-5.6,0-10.2-4.6-10.2-10.2c0-0.2,0-0.4-0.1-0.5C-204.1,439.6-200.7,440.3-197.2,440.3z M-183.4,459.3  v-6.5h6.5v6.5H-183.4z M-165.1,459.3h-8.1V451c0-1-0.8-1.8-1.8-1.8h-10.1c-1,0-1.8,0.8-1.8,1.8v8.3h-8.2v-6.9  c6.1-0.8,11-5.6,11.8-11.7c1.2,0.1,2.3,0.3,3.4,0.7c0.1,0,0.1,0,0.2,0.1c2,0.6,3.9,1.5,5.6,2.6c0.1,0.1,0.2,0.1,0.3,0.2  C-169,447.6-165.7,453-165.1,459.3z M-219.4,410.1c0-12.3,10-22.2,22.2-22.2c12.3,0,22.2,10,22.2,22.2v29.3c-0.8-0.4-1.6-0.7-2.5-1  v-32.6c0-1-0.8-1.8-1.8-1.8h-5.7c-5.6,0-10.2-4.6-10.2-10.2c0-1-0.8-1.8-1.8-1.8c-1,0-1.8,0.8-1.8,1.8c0,5.6-4.6,10.2-10.2,10.2  h-6.1c-1,0-1.8,0.8-1.8,1.8v32.8c-0.8,0.3-1.7,0.7-2.5,1.1V410.1z M-220.5,444.5c0.1,0,0.2-0.1,0.3-0.2c1.7-1.2,3.6-2.1,5.6-2.8  c0.1,0,0.1,0,0.1-0.1c1.2-0.4,2.5-0.6,3.8-0.8c0.9,6.1,5.7,10.9,11.8,11.7v6.9h-30.1C-228.3,453.2-225.2,447.9-220.5,444.5z"/><path fill="#000000" d="M-203.5,421.5c0,0.1,0,0.1-0.1,0.2c0,0.1,0,0.1,0,0.2c0,0.1,0,0.1,0,0.2c0,0.1,0,0.1,0,0.2c0,0,0,0,0,0  c0,0,0,0.1,0,0.1c0,0.1,0,0.1,0,0.2c0,0.1,0,0.1,0,0.2c0,0.1,0,0.1,0.1,0.2c0,0.1,0,0.1,0.1,0.2c0,0.1,0.1,0.1,0.1,0.2  c0,0,0.1,0.1,0.1,0.1c0,0,0.1,0.1,0.1,0.1c0,0,0.1,0.1,0.1,0.1c0,0,0.1,0.1,0.1,0.1c0.1,0,0.1,0.1,0.2,0.1c0,0,0.1,0,0.1,0.1  c0,0,0,0,0,0c0.1,0,0.2,0.1,0.3,0.1c0,0,0.1,0,0.1,0c0.1,0,0.2,0,0.3,0c0,0,0,0,0.1,0c0,0,0,0,0,0h4.6l-1.4,3c-0.4,0.9,0,2,0.9,2.4  c0.3,0.1,0.5,0.2,0.8,0.2c0.7,0,1.3-0.4,1.6-1l2.6-5.6c0,0,0,0,0,0c0-0.1,0-0.1,0.1-0.2c0-0.1,0-0.1,0-0.2c0-0.1,0-0.1,0-0.2  c0-0.1,0-0.1,0-0.2c0,0,0,0,0,0c0,0,0-0.1,0-0.1c0-0.1,0-0.1,0-0.2c0-0.1,0-0.1,0-0.2c0-0.1,0-0.1-0.1-0.2c0-0.1,0-0.1-0.1-0.2  c0-0.1-0.1-0.1-0.1-0.2c0,0-0.1-0.1-0.1-0.1c0,0-0.1-0.1-0.1-0.1c0,0-0.1-0.1-0.1-0.1c0,0-0.1-0.1-0.1-0.1c-0.1,0-0.1-0.1-0.2-0.1  c0,0-0.1,0-0.1-0.1c0,0,0,0,0,0c-0.1,0-0.1,0-0.2-0.1c-0.1,0-0.1,0-0.2-0.1c0,0-0.1,0-0.1,0c-0.1,0-0.1,0-0.2,0c0,0,0,0,0,0h-4.6  l3.6-7.6c0.4-0.9,0-2-0.9-2.4c-0.9-0.4-2,0-2.4,0.9L-203.5,421.5C-203.5,421.5-203.5,421.5-203.5,421.5z"/><circle fill="#000000" cx="-208.8" cy="412.1" r="1.8"/><circle fill="#000000" cx="-185.4" cy="412.1" r="1.8"/><text x="-247" y="485.9" fill="#000000" font-size="5px" font-weight="bold" font-family="'Helvetica Neue', Helvetica, Arial-Unicode, Arial, Sans-serif">Created by Carl Holderness</text><text x="-247" y="490.9" fill="#000000" font-size="5px" font-weight="bold" font-family="'Helvetica Neue', Helvetica, Arial-Unicode, Arial, Sans-serif">from the Noun Project</text></svg>