<svg xmlns:dc="http://purl.org/dc/elements/1.1/" xmlns:cc="http://creativecommons.org/ns#" xmlns:rdf="http://www.w3.org/1999/02/22-rdf-syntax-ns#" xmlns:svg="http://www.w3.org/2000/svg" xmlns="http://www.w3.org/2000/svg" xmlns:sodipodi="http://sodipodi.sourceforge.net/DTD/sodipodi-0.dtd" xmlns:inkscape="http://www.inkscape.org/namespaces/inkscape" version="1.1" x="0px" y="0px" viewBox="0 0 100 125"><g transform="translate(0,-952.36218)"><path style="text-indent:0;text-transform:none;direction:ltr;block-progression:tb;baseline-shift:baseline;color:#000000;enable-background:accumulate;" d="m 91.875,14.96875 c -0.256128,0.03391 -0.496999,0.171553 -0.65625,0.375 L 46.8125,68.625 20.5625,50.15625 c -0.433716,-0.290544 -1.091995,-0.162612 -1.38532,0.269228 -0.293326,0.431841 -0.169626,1.090928 0.26032,1.387022 l 27,19 c 0.40829,0.283438 1.028644,0.196877 1.34375,-0.1875 l 45,-54 c 0.550947,-0.611247 -0.0944,-1.790682 -0.90625,-1.65625 z M 7.8125,27 C 7.3540975,27.087467 6.9917766,27.5334 7,28 l 0,64 c 5.24e-5,0.523584 0.4764155,0.999948 1,1 l 64,0 c 0.523584,-5.2e-5 0.999948,-0.476416 1,-1 l 0,-28 c 0.0075,-0.528313 -0.471635,-1.014242 -1,-1.014242 -0.528365,0 -1.007472,0.485929 -1,1.014242 l 0,27 -62,0 0,-62 51,0 c 0.528313,0.0075 1.014242,-0.471635 1.014242,-1 0,-0.528365 -0.485929,-1.007472 -1.014242,-1 -18.181512,0 -36.617554,0 -52.1875,0 z" transform="translate(0,952.36218)" fill="#000000" fill-opacity="1" stroke="none" marker="none" visibility="visible" display="inline" overflow="visible"/></g><text x="0" y="115" fill="#000000" font-size="5px" font-weight="bold" font-family="'Helvetica Neue', Helvetica, Arial-Unicode, Arial, Sans-serif">Created by Rockicon</text><text x="0" y="120" fill="#000000" font-size="5px" font-weight="bold" font-family="'Helvetica Neue', Helvetica, Arial-Unicode, Arial, Sans-serif">from the Noun Project</text></svg>