<svg xmlns="http://www.w3.org/2000/svg" xmlns:xlink="http://www.w3.org/1999/xlink" version="1.1" x="0px" y="0px" viewBox="0 0 100 125" enable-background="new 0 0 100 100" xml:space="preserve"><g><g><path d="M95,97H4.5C3.671,97,3,96.328,3,95.5V5c0-0.829,0.671-1.5,1.5-1.5S6,4.171,6,5v89h89c0.828,0,1.5,0.672,1.5,1.5    S95.828,97,95,97z"/></g><g><g><path d="M91,78c-0.271,0-0.541-0.109-0.738-0.325L58.968,43.447l-15.261,15.26c-0.391,0.391-1.023,0.391-1.414,0l-38-38     c-0.391-0.391-0.391-1.023,0-1.414s1.023-0.391,1.414,0L43,56.586l15.293-15.293c0.193-0.193,0.453-0.308,0.729-0.292     c0.272,0.006,0.531,0.123,0.716,0.325l32,35c0.372,0.407,0.344,1.04-0.063,1.413C91.483,77.913,91.241,78,91,78z"/></g><g><path d="M95,82h-8c-0.404,0-0.77-0.243-0.924-0.617c-0.155-0.374-0.069-0.804,0.217-1.09l8-8c0.286-0.286,0.715-0.372,1.09-0.217     C95.757,72.23,96,72.596,96,73v8C96,81.553,95.553,82,95,82z M89.414,80H94v-4.586L89.414,80z"/></g></g></g><text x="0" y="115" fill="#000000" font-size="5px" font-weight="bold" font-family="'Helvetica Neue', Helvetica, Arial-Unicode, Arial, Sans-serif">Created by Agus Purwanto</text><text x="0" y="120" fill="#000000" font-size="5px" font-weight="bold" font-family="'Helvetica Neue', Helvetica, Arial-Unicode, Arial, Sans-serif">from the Noun Project</text></svg>