<svg xmlns="http://www.w3.org/2000/svg" xmlns:xlink="http://www.w3.org/1999/xlink" version="1.1" x="0px" y="0px" viewBox="0 0 100 125" enable-background="new 0 0 100 100" xml:space="preserve"><g><path fill="#000000" stroke="#231F20" stroke-miterlimit="10" d="M30.724,42.565c0,0,1.501-1.75,2.25-2.583   c0.75-0.833,1.667-1.667,2.417-1.667c0.749,0,2.249,0.083,2.249,0.75s-0.083,2.417-0.499,3.583c-0.417,1.167-1.251,3-2.167,3.917   c-0.917,0.917-1.583,1.833-2.833,1.916c-1.25,0.083-3,0.25-3.499,0c-0.501-0.25-0.501-1.166-0.168-1.833   C28.808,45.981,30.724,42.565,30.724,42.565z M30.558,56.647c0.25,0.5,1.166,0.833,1.667,1.417c0.499,0.583,1.25,1,1.665,0.833   c0.417-0.167,0.584-0.583,0.834-1.166c0.25-0.583,0.25-2.083,0.166-2.833c-0.083-0.75-1.25-1.083-1.666-1   c-0.416,0.083-0.833,1-1.083,1.416c-0.25,0.417-1.166,0.333-1.166,0.333S30.308,56.147,30.558,56.647z M41.973,61.813   c-0.749,0.667-0.584,1.916-0.5,2.667c0.084,0.75,1.083,0.5,1.75,0.333s2.334-1.667,3-2.583c0.667-0.917,1.165-2.75,1.25-3.917   c0.084-1.167-0.5-2.5-1.417-3.583c-0.917-1.083-1.416-0.5-2.083-0.417c-0.666,0.084-1.167,2.417-1.334,3.083   c-0.166,0.667,0.501,1.5,0.75,1.75c0.25,0.25,0,0.833,0,0.833S42.724,61.146,41.973,61.813z M71.637,38.482   c0.5-0.333,1.083-1.25,1-2.333c-0.084-1.083,0.5-2.25,1.083-3.083c0.583-0.833-0.25-1.5-0.666-1.917   c-0.417-0.417-1.667-0.333-2.334-0.333s-2.666-1.333-3.665-1.917c-1.001-0.583-2.001-0.333-2.668-0.333   c-0.666,0-0.749-1.167-1.332-1.917c-0.584-0.75-2.417-0.916-3.084-0.25c-0.666,0.666-0.25,3.666,0.167,4.166   c0.417,0.5,0.166,1.083-0.084,1.583c-0.249,0.5,0.584,1.917,0.917,2.25c0.334,0.333,0.667,0.583,0.667,1.5s1.083,1.25,1.667,1.667   c0.583,0.417,2,0.583,2.999,0.833c1.001,0.25,2.833,0.417,2.833,0.417S71.137,38.815,71.637,38.482z M85.385,62.896   c0.667,0.167,0.834,0.917,0.334,1.667c-0.5,0.75-0.833,1.833-0.167,2.167c0.667,0.333,1.501-0.5,1.917-1.083   c0.416-0.584,1.499-0.5,2.5,1.166c0.999,1.667,1.5,1.417,1.999,1.417c0.5,0,0.917-0.583,1.5-1.417   c0.584-0.833,0.667-2.583,0.084-3.25c-0.584-0.667-0.167-0.75,1.082-1.333c1.251-0.583,1.334-2.5,1.251-3.667   c-0.084-1.167-2.333-2.333-3.333-3s-6.25-3-7.499-3.166c-1.25-0.167-1.501,1-2.167,1.583c-0.667,0.583-0.5,2.417-0.083,2.75   c0.417,0.333,0.666,1.417,0.333,1.917c-0.334,0.5-1.166,1-1.584,1.75c-0.416,0.75,1.001,1.75,1.001,1.75   S84.719,62.729,85.385,62.896z M31.902,79.151c1.083-0.5,1.167-1.75,1.584-2.5c0.415-0.75-0.417-1.166-1.001-2   c-0.583-0.833-1.583-0.5-2.917-0.833c-1.332-0.333-2.416-0.083-3.082,0.417c-0.667,0.5,0.666,1.583,0.916,2.166   c0.25,0.584-0.416,1.083-1.083,1.667c-0.667,0.583,1.083,1.25,1.083,1.25S30.819,79.65,31.902,79.151z M63.377,74.798   c0.249,0.083,0.833-0.25,1.332-1.084c0.5-0.833,1.084-1,1.917-1.083c0.833-0.083,0.916,0.833,0.75,1.333   c-0.168,0.5-1.333,0.917-1.916,1.417c-0.584,0.5,0.416,1.667,0.916,1.833c0.5,0.166,0.833,0.083,1.5-0.667   c0.666-0.75,0.75,0.083,1.583,0.917c0.834,0.833,1.083,0.583,1.667,0.333c0.582-0.25,1.499-1,2.584-0.833   c1.082,0.166,3.498,1.25,4.165,0.583c0.666-0.666-0.167-1.167-0.916-2c-0.751-0.833-1.417-1.583-2.417-2.083   c-0.999-0.5-1.083-0.916-0.917-2.416c0.167-1.5-0.416-1.667-1.249-2c-0.834-0.333-0.833-0.084-2.251-1.25   c-1.416-1.167-1.332-1.25-1.749-0.917c-0.417,0.333-1.084,0.833-2.333,0.917c-1.25,0.083-1.25,0.5-1.334,0.917   c-0.082,0.417-1.417,1.917-2.583,2.833c-1.166,0.917,0.167,2.333,0.167,2.333S63.127,74.714,63.377,74.798z M59.752,50.769   c0.249,0.083,2.332,0.333,3.249-0.083c0.917-0.417,0.667-1.166,1.083-2c0.417-0.833-0.083-1.5-0.666-2.166   c-0.584-0.667-0.75-0.917-0.667-1.583s2.499-0.917,2.417-1.917c-0.083-1-1.417-1.25-2.5-2.333s-1.917-1.25-3.25-1.5   c-1.333-0.25-2.75,0.917-3.416,1.5c-0.667,0.583-0.666,1.917-0.583,2.667s-0.5,2.75-0.833,4c-0.334,1.25,1.082,1.083,1.916,1.25   c0.833,0.167,2.166,1.667,2.166,1.667S59.501,50.685,59.752,50.769z M89.566,75.039c1-0.5,0.666-1.667,0.5-3   c-0.166-1.334-1.25-1.833-2.5-2.333c-1.25-0.5-1.749,0.333-2.166,0.833s0,1.25,1.083,2.167c1.083,0.917,1.167,2,1.167,2   S88.566,75.539,89.566,75.039z M55.757,24.361c0.749-0.083,0.999-1.167,1.916-1.75c0.917-0.583,2.333-2.583,2.166-3.583   c-0.166-1-0.916-1.25-1.249-2c-0.333-0.75,0-1.417-0.584-1.917c-0.582-0.5-2.666-0.083-3.332-0.167c-0.667-0.083-1.085-1-1.583-1.5   c-0.501-0.5-0.335-2-1.167-2.583c-0.833-0.583-2.417-0.583-3.25-0.083s-1,2.75-1,3.916c0,1.167,0.834,1.167,1.417,1.833   s1.916,0,2.999,0.75s0,1.75,0,2.333c0,0.583,0.917,0.917,1.75,1.75c0.833,0.833,0.834,2.334,0.834,2.334   S55.006,24.444,55.757,24.361z M40.627,42.481c0.833,0.083,1.082-0.917,1.416-1.917c0.334-1,0.083-1.666-0.416-2.166   c-0.501-0.5-1.084,0.25-1.333,0.666c-0.251,0.417-1.001,0.5-1.501,0.75c-0.499,0.25,0.334,1.5,0.334,1.5   S39.793,42.398,40.627,42.481z M51.594,85.073c0.568,0.497,0.993-0.07,1.774-0.781c0.78-0.71,2.414-1.278,3.194-1.917   c0.781-0.639,0.284-1.704,0.07-2.485c-0.213-0.781-0.922-1.136-1.277-1.277c-0.355-0.142-1.064-0.781-1.491-1.277   c-0.426-0.498-1.419-0.426-2.129-0.284s-0.993,1.278-0.71,2.059c0.284,0.78,1.064,1.491,1.207,1.988   c0.143,0.497-1.349,2.059-1.349,2.059S51.025,84.576,51.594,85.073z M19.629,78.574c0.568,0.355,1.136-0.071,1.846-0.426   c0.709-0.354,2.271-0.071,2.768-0.781c0.497-0.71-0.496-1.419-0.354-2.342c0.142-0.923-0.426-0.71-1.136-0.923   c-0.711-0.212-0.993-0.781-1.704-1.277c-0.709-0.497-0.993,0.212-0.923,0.851c0.071,0.639-0.213,0.852-0.78,1.775   c-0.567,0.922-0.213,2.555-0.213,2.555S19.061,78.219,19.629,78.574z M15.491,47.472c0.071-0.71-0.994-0.498-2.13-0.498   s-1.916,1.562-2.413,2.129c-0.497,0.568-0.853,0.284-1.917-0.142c-1.064-0.426-2.91,0.781-3.549,1.633   c-0.639,0.852,1.917,1.562,2.839,2.129c0.924,0.568,2.272,0.142,2.769-0.781c0.497-0.923,1.704-1.278,1.704-1.278   S15.42,48.182,15.491,47.472z"/></g><text x="0" y="115" fill="#000000" font-size="5px" font-weight="bold" font-family="'Helvetica Neue', Helvetica, Arial-Unicode, Arial, Sans-serif">Created by Lisa Oregioni</text><text x="0" y="120" fill="#000000" font-size="5px" font-weight="bold" font-family="'Helvetica Neue', Helvetica, Arial-Unicode, Arial, Sans-serif">from the Noun Project</text></svg>