<svg xmlns="http://www.w3.org/2000/svg" xmlns:xlink="http://www.w3.org/1999/xlink" version="1.1" x="0px" y="0px" viewBox="0 0 110 137.5" enable-background="new 0 0 110 110" xml:space="preserve"><g><path fill="#000000" d="M16.781,91.404c-0.085,0-0.171-0.021-0.248-0.066c-0.164-0.093-0.261-0.271-0.251-0.459l3.78-75.375   c0.014-0.265,0.232-0.474,0.498-0.475c0.341-0.001,34.218-0.168,45.262-1.883c3.754-0.583,11.242-1.614,14.939-2.08   c3.493-0.438,13.716-1.129,13.819-1.137c0.146-0.011,0.288,0.045,0.391,0.149c0.102,0.104,0.153,0.248,0.141,0.394l-6.613,75.374   c-0.016,0.173-0.119,0.325-0.274,0.403l-4.533,2.267c-0.174,0.086-0.379,0.065-0.532-0.054l-2.182-1.712l-1.982,3.636   c-0.08,0.146-0.229,0.243-0.395,0.259c-0.165,0.009-0.328-0.054-0.434-0.184l-2.872-3.547l-3.007,2.84   c-0.19,0.181-0.487,0.183-0.682,0.006l-1.981-1.815l-3.453,2.244c-0.183,0.12-0.424,0.106-0.593-0.035l-4.314-3.593l-5.962,2.168   c-0.167,0.061-0.353,0.028-0.489-0.084l-2.941-2.422l-4.799,2.843c-0.205,0.123-0.465,0.082-0.625-0.094l-1.597-1.756l-4.364,2.967   c-0.172,0.119-0.399,0.116-0.57-0.005l-4.326-3.064l-7.695,2.564c-0.161,0.052-0.338,0.021-0.471-0.084l-3.494-2.795l-6.875,4.523   C16.973,91.377,16.877,91.404,16.781,91.404L16.781,91.404z M21.037,16.026L17.33,89.944l6.355-4.181   c0.182-0.118,0.417-0.107,0.587,0.027l3.565,2.852l7.677-2.559c0.152-0.048,0.318-0.025,0.447,0.066l4.25,3.011l4.436-3.016   c0.208-0.14,0.483-0.108,0.651,0.077l1.614,1.775l4.75-2.814c0.182-0.106,0.411-0.091,0.573,0.044l2.992,2.464l5.964-2.169   c0.166-0.062,0.353-0.029,0.491,0.086l4.252,3.541l3.468-2.254c0.189-0.126,0.441-0.104,0.61,0.05l1.925,1.763l3.061-2.892   c0.102-0.096,0.242-0.147,0.377-0.136c0.139,0.01,0.268,0.076,0.355,0.185l2.742,3.386l1.907-3.498   c0.071-0.129,0.194-0.221,0.339-0.25c0.145-0.034,0.294,0.006,0.409,0.096l2.397,1.881l4-2l6.538-74.513   c-2.225,0.154-10.195,0.717-13.179,1.091c-3.69,0.465-11.165,1.495-14.91,2.076C55.577,15.748,25.206,15.999,21.037,16.026   L21.037,16.026z"/></g><g><path fill="#000000" d="M45.119,37.94c-0.101,0-0.203-0.03-0.292-0.094l-6.045-4.345c-0.224-0.162-0.275-0.474-0.114-0.698   s0.473-0.276,0.698-0.114l6.045,4.345c0.224,0.162,0.275,0.474,0.114,0.698C45.427,37.868,45.274,37.94,45.119,37.94L45.119,37.94z   "/></g><g><path fill="#000000" d="M40.019,39.452c-0.079,0-0.159-0.019-0.234-0.059c-0.244-0.129-0.337-0.432-0.207-0.676l3.211-6.045   c0.13-0.244,0.433-0.337,0.676-0.207c0.244,0.129,0.337,0.432,0.207,0.676l-3.211,6.045C40.371,39.356,40.198,39.452,40.019,39.452   L40.019,39.452z"/></g><g><path fill="#000000" d="M69.488,38.318c-0.154,0-0.308-0.072-0.405-0.207l-4.912-6.8c-0.162-0.224-0.111-0.537,0.112-0.698   c0.223-0.162,0.536-0.112,0.698,0.112l4.912,6.8c0.162,0.224,0.111,0.537-0.112,0.698C69.692,38.287,69.59,38.318,69.488,38.318   L69.488,38.318z"/></g><g><path fill="#000000" d="M64.389,39.641c-0.093,0-0.187-0.025-0.27-0.079c-0.232-0.149-0.301-0.458-0.151-0.691l5.113-7.974   c0.149-0.233,0.461-0.299,0.69-0.151c0.232,0.149,0.301,0.458,0.151,0.691l-5.113,7.974C64.714,39.56,64.553,39.641,64.389,39.641   L64.389,39.641z"/></g><g><path fill="#000000" d="M42.097,71.188c-0.259,0-0.478-0.199-0.498-0.462c-0.021-0.275,0.185-0.516,0.46-0.537l19.834-1.511   c0.268-0.021,0.516,0.186,0.537,0.461c0.021,0.275-0.186,0.516-0.461,0.537l-19.834,1.511   C42.122,71.188,42.109,71.188,42.097,71.188L42.097,71.188z"/></g><g><path fill="#000000" d="M51.92,54.375c-0.146,0-0.289-0.063-0.388-0.184c-0.174-0.214-0.142-0.529,0.072-0.704l4.619-3.763   l-4.046-3.203c-0.217-0.171-0.253-0.486-0.082-0.702c0.172-0.217,0.485-0.253,0.702-0.082l4.535,3.589   c0.118,0.094,0.188,0.237,0.189,0.389c0.001,0.151-0.066,0.295-0.185,0.391l-5.101,4.156C52.143,54.338,52.031,54.375,51.92,54.375   L51.92,54.375z"/></g><g><path fill="#000000" d="M44.554,99.334c-0.005,0-0.011,0-0.016,0c-0.276-0.009-0.493-0.239-0.485-0.516l0.377-12.275   c0.009-0.275,0.276-0.476,0.515-0.484c0.276,0.009,0.493,0.239,0.485,0.516L45.053,98.85C45.044,99.12,44.823,99.334,44.554,99.334   L44.554,99.334z"/></g><g><path fill="#000000" d="M64.766,99.713c-0.228,0-0.434-0.156-0.487-0.387L61.302,86.53c-0.062-0.269,0.105-0.538,0.374-0.601   c0.274-0.061,0.538,0.106,0.601,0.374L65.253,99.1c0.062,0.269-0.105,0.538-0.374,0.601C64.841,99.709,64.803,99.713,64.766,99.713   L64.766,99.713z"/></g><g><path fill="#000000" d="M53.242,95.938c-0.198,0-0.386-0.119-0.464-0.314c-0.103-0.256,0.022-0.547,0.278-0.649   c0.018-0.008,0.551-0.24,0.584-0.795c0.001-0.192-0.445-0.779-0.92-1.205c-0.206-0.185-0.223-0.501-0.038-0.706   c0.185-0.206,0.501-0.222,0.706-0.038c0.304,0.273,1.294,1.225,1.25,2.008c-0.057,0.954-0.788,1.495-1.21,1.664   C53.367,95.926,53.304,95.938,53.242,95.938L53.242,95.938z"/></g><text x="0" y="125" fill="#000000" font-size="5px" font-weight="bold" font-family="'Helvetica Neue', Helvetica, Arial-Unicode, Arial, Sans-serif">Created by Matthew Flynn</text><text x="0" y="130" fill="#000000" font-size="5px" font-weight="bold" font-family="'Helvetica Neue', Helvetica, Arial-Unicode, Arial, Sans-serif">from the Noun Project</text></svg>